<svg viewBox="0 0 148 38" fill="none" xmlns="http://www.w3.org/2000/svg">
<g clip-path="url(#clip0_301_2)">
<path d="M17.8894 29.4557C17.7566 29.561 17.6132 29.6493 17.4618 29.7186L17.5368 29.6842C17.3038 29.7898 17.0591 29.8609 16.8087 29.8964L16.8921 29.884C16.6764 29.9182 16.4574 29.9214 16.2409 29.8938L16.3244 29.9062C16.2352 29.8912 16.1477 29.8671 16.0628 29.834C15.9211 29.7823 15.778 29.7333 15.6326 29.6946C15.4591 29.6462 15.2816 29.6169 15.1028 29.6075C15.0065 29.6051 14.9103 29.6124 14.8152 29.6286C14.7376 29.6435 14.661 29.6637 14.5857 29.6891C14.4164 29.7384 14.2444 29.7755 14.0706 29.8005L14.1541 29.7885C14.1047 29.798 14.0546 29.8044 14.0044 29.8071C13.9538 29.8044 13.9033 29.7982 13.8534 29.7885L13.9368 29.8005C13.7858 29.7787 13.636 29.7475 13.488 29.7079C13.4085 29.6864 13.3303 29.6562 13.2487 29.639C13.1535 29.6182 13.0566 29.6075 12.9594 29.6064C12.6302 29.6064 12.303 29.7042 11.9927 29.8161C11.8914 29.8564 11.7871 29.8867 11.6807 29.9065L11.7641 29.8941C11.5477 29.9218 11.3288 29.9185 11.1131 29.8844L11.1966 29.8967C10.9462 29.8613 10.7013 29.7902 10.4681 29.6844L10.5432 29.7189C10.392 29.6493 10.2486 29.5613 10.116 29.4559C10.0543 29.4066 9.94424 29.4004 9.87397 29.4215C9.83421 29.4335 9.79696 29.4541 9.76433 29.4817C9.73184 29.5093 9.70449 29.5435 9.68415 29.5824C9.66368 29.6217 9.6506 29.6646 9.64545 29.7091C9.64043 29.754 9.64333 29.7992 9.6543 29.8425C9.66513 29.8698 9.67556 29.8971 9.686 29.9243C9.71347 29.9751 9.75231 30.0174 9.79881 30.0472C9.98915 30.1941 10.1975 30.3112 10.4178 30.3946C10.6088 30.4702 10.8065 30.5234 11.0079 30.5533C11.362 30.608 11.7378 30.6313 12.0822 30.5046C12.3215 30.4168 12.5625 30.3348 12.8125 30.2968L12.7288 30.3092C12.8537 30.2888 12.9807 30.2861 13.1063 30.3014L13.0228 30.289C13.098 30.303 13.1721 30.3226 13.2449 30.3469C13.329 30.3719 13.4135 30.3933 13.4985 30.4122C13.6427 30.4447 13.7887 30.4669 13.935 30.4847C13.9707 30.49 14.0068 30.4913 14.0427 30.488C14.1798 30.4724 14.3168 30.4509 14.4523 30.4226C14.542 30.4041 14.6318 30.3826 14.7215 30.3573C14.8069 30.3286 14.8938 30.3057 14.9816 30.2884L14.8981 30.3008C15.0236 30.2855 15.1504 30.2881 15.2754 30.3086L15.1919 30.2962C15.4159 30.3348 15.6361 30.3957 15.8501 30.4779C15.9187 30.5049 15.9886 30.5282 16.0595 30.5471C16.1514 30.568 16.2444 30.582 16.3381 30.5894C16.5101 30.6027 16.6829 30.5975 16.8539 30.5735C17.0781 30.5475 17.2992 30.4967 17.5139 30.4217C17.7611 30.3366 17.9947 30.2101 18.2062 30.0465C18.2741 29.9916 18.3258 29.9341 18.3504 29.8418C18.3722 29.7527 18.3608 29.6582 18.3187 29.5782C18.2771 29.5012 18.2101 29.445 18.1311 29.4208C18.0536 29.4017 17.9557 29.4017 17.889 29.4553L17.8894 29.4557Z" fill="white"/>
<path d="M24.5615 23.265C23.2437 23.7049 21.8972 24.0621 20.5309 24.3344C19.1588 24.6086 17.7693 24.7945 16.3713 24.8906C14.9228 24.9909 13.469 24.999 12.0195 24.9149C10.6123 24.8345 9.21252 24.6633 7.82946 24.4027C6.46547 24.1462 5.1204 23.8051 3.80283 23.3816C3.63827 23.3287 3.47401 23.2744 3.31005 23.219C3.14761 23.1638 2.96119 23.281 2.91777 23.4315C2.8695 23.5999 2.97849 23.7506 3.14064 23.8061C4.46041 24.2528 5.80935 24.6169 7.1788 24.896C11.454 25.7641 15.8678 25.8078 20.1611 25.0247C21.5416 24.7734 22.9033 24.4354 24.2375 24.013C24.4027 23.9607 24.5672 23.9069 24.7318 23.8523C24.8964 23.7977 25.002 23.6438 24.9544 23.4776C24.9109 23.3268 24.7254 23.2105 24.562 23.265H24.5615Z" fill="white"/>
<path d="M15.2444 1.92613C15.3305 1.9343 15.4171 1.94307 15.5032 1.95305C15.5461 1.95787 15.5891 1.96301 15.6317 1.96844L15.696 1.97661L15.7387 1.98206L15.697 1.97661C15.7345 1.97116 15.7877 1.98899 15.825 1.99475C15.8675 2.00078 15.9102 2.00745 15.9524 2.01408C16.0371 2.02739 16.1217 2.04149 16.2062 2.05638C16.5412 2.11684 16.8737 2.18999 17.2039 2.27582C17.5294 2.36123 17.8511 2.45979 18.1692 2.57139C18.3271 2.62639 18.4836 2.68474 18.6394 2.74636C18.7168 2.77659 18.7938 2.80893 18.8709 2.84067C18.9389 2.86909 18.8041 2.81194 18.8709 2.84067L18.9281 2.86514C18.9664 2.88178 19.0046 2.89838 19.0424 2.91532C19.6476 3.18425 20.2308 3.50023 20.7868 3.86039C21.0629 4.03889 21.3319 4.22819 21.5935 4.42825C21.61 4.44093 21.6672 4.47267 21.5935 4.42825C21.6104 4.43997 21.6266 4.4526 21.6421 4.46604L21.7385 4.5425C21.803 4.59359 21.8664 4.64524 21.9297 4.69783C22.0559 4.80241 22.1802 4.9095 22.3024 5.0191C22.7909 5.45706 23.245 5.93195 23.6607 6.43957C23.7128 6.50304 23.7642 6.56708 23.815 6.63176L23.8528 6.68013C23.8979 6.73724 23.8092 6.62302 23.8528 6.68013C23.8779 6.71276 23.9026 6.74541 23.9274 6.77834C24.0263 6.90951 24.1224 7.04269 24.2165 7.17789C24.4042 7.44828 24.5814 7.72592 24.7483 8.01081C24.9151 8.29571 25.0708 8.58787 25.2154 8.88729C25.2876 9.03699 25.3572 9.1881 25.4237 9.34062C25.4403 9.37869 25.4567 9.41709 25.4733 9.45515C25.5034 9.52317 25.4455 9.38806 25.4733 9.45515C25.4811 9.4745 25.4893 9.49384 25.4971 9.51289C25.5289 9.59026 25.5597 9.66771 25.59 9.74529C25.8342 10.3736 26.0277 11.0204 26.1689 11.6795C26.2049 11.8464 26.2376 12.014 26.2663 12.1824C26.2808 12.2667 26.2944 12.3513 26.3074 12.4363C26.3137 12.4789 26.3202 12.5212 26.3261 12.5638C26.331 12.5849 26.3337 12.6063 26.335 12.6279C26.3392 12.5442 26.3315 12.6034 26.335 12.6279C26.3794 12.9726 26.4096 13.3189 26.4256 13.6666C26.445 14.0762 26.4401 14.4866 26.4404 14.8963C26.4404 15.3836 26.4392 15.8707 26.4371 16.3577C26.4356 16.5982 26.4333 16.8388 26.4298 17.0793C26.4277 17.2453 26.5778 17.4042 26.7474 17.3967C26.8311 17.3951 26.9109 17.3612 26.9701 17.302C27.0294 17.2429 27.0632 17.163 27.0648 17.0793C27.078 16.1034 27.0845 15.1262 27.0744 14.1502C27.066 13.4263 26.9991 12.7042 26.8741 11.9911C26.3946 9.26667 25.0582 6.76605 23.0595 4.85275C21.0608 2.93944 18.5038 1.71309 15.7602 1.35191C15.5889 1.32895 15.4169 1.3093 15.2444 1.29299C15.0788 1.27726 14.9197 1.45013 14.927 1.61031C14.9352 1.79557 15.0666 1.91073 15.2444 1.92766V1.92613Z" fill="white"/>
<path d="M1.58798 17.0775C1.56683 16.558 1.5623 16.0384 1.56261 15.5188C1.56261 15.0371 1.55838 14.5551 1.56864 14.0734C1.5769 13.7067 1.60005 13.3411 1.63811 12.9766C1.64777 12.8837 1.65852 12.791 1.67042 12.6985C1.67193 12.6859 1.68129 12.615 1.67434 12.6664C1.6674 12.7177 1.67706 12.6468 1.67887 12.6358C1.68521 12.5897 1.69186 12.5441 1.69881 12.498C1.72577 12.3185 1.75596 12.1397 1.7894 11.9616C1.92474 11.259 2.11811 10.5691 2.3674 9.89924C2.39759 9.81796 2.42779 9.73694 2.46071 9.65658C2.47731 9.61471 2.49393 9.57283 2.51084 9.53126L2.53439 9.47381C2.56247 9.40566 2.51748 9.51385 2.53862 9.46434C2.60746 9.30235 2.67844 9.1416 2.75332 8.98267C2.90109 8.66909 3.06114 8.36185 3.23348 8.06092C3.4058 7.75996 3.59103 7.46524 3.78913 7.17672C3.88737 7.03411 3.98801 6.89313 4.09111 6.75375L4.12765 6.70453C4.1349 6.69535 4.17507 6.64034 4.14607 6.6804C4.11708 6.72043 4.16479 6.65625 4.17084 6.64799L4.21492 6.59177C4.26705 6.52475 4.32002 6.4584 4.37376 6.3928C4.81107 5.8558 5.29056 5.35551 5.80758 4.89677C5.93642 4.78227 6.06789 4.67021 6.20198 4.56059C6.23217 4.53492 6.26479 4.50922 6.2965 4.48386C6.30827 4.47439 6.40158 4.41234 6.40008 4.40164L6.37592 4.42059L6.40008 4.40195C6.41609 4.38943 6.43208 4.3769 6.4484 4.36467C6.48585 4.33563 6.52389 4.30722 6.56164 4.27879C6.83584 4.07321 7.11767 3.87892 7.4072 3.69597C7.70072 3.51077 8.00141 3.33756 8.30921 3.17639C8.46382 3.0949 8.61987 3.01768 8.7773 2.94474C8.85464 2.90835 8.93257 2.87291 9.01037 2.83807L9.13269 2.78458L9.16109 2.77237L9.13098 2.78458C9.15383 2.77724 9.17602 2.76783 9.19729 2.75645C9.84864 2.48468 10.5213 2.26857 11.2083 2.11036C11.5541 2.03091 11.9027 1.96612 12.2541 1.91598L12.3172 1.90715C12.3172 1.90715 12.2489 1.91598 12.2854 1.91141L12.3274 1.9059C12.3733 1.9001 12.418 1.89428 12.4647 1.8891C12.553 1.87849 12.6414 1.86892 12.73 1.86037C12.9111 1.84284 13.093 1.82921 13.2757 1.81943C13.4582 1.80965 13.6387 1.80383 13.8167 1.802C13.9826 1.80017 14.1417 1.65592 14.1339 1.4811C14.126 1.30629 13.9947 1.15805 13.8167 1.16018C13.061 1.16963 12.3073 1.24396 11.564 1.38239C10.8607 1.51298 10.1698 1.70377 9.49846 1.95268C8.14216 2.45162 6.87818 3.17713 5.75896 4.09906C5.21857 4.54035 4.71459 5.02545 4.25207 5.54956C3.775 6.08971 3.34186 6.66801 2.95686 7.27881C2.58041 7.87693 2.25345 8.50548 1.97935 9.15809C1.6912 9.83834 1.45976 10.5418 1.28751 11.2611C1.11447 11.9985 1.00336 12.7493 0.955319 13.5056C0.928742 13.917 0.928438 14.3278 0.927236 14.7398C0.925426 15.2645 0.921794 15.7895 0.929653 16.3147C0.933273 16.5682 0.940102 16.8221 0.950181 17.0759C0.957129 17.2435 1.09122 17.4048 1.26727 17.3969C1.43337 17.3892 1.5919 17.2553 1.58435 17.0759L1.58798 17.0775Z" fill="white"/>
<path d="M12.7372 8.8751C13.4267 8.796 14.1215 8.77225 14.815 8.80408C15.1035 8.81716 15.3913 8.84013 15.6782 8.87299C15.7426 8.88022 15.8072 8.88809 15.8722 8.89656C15.943 8.90533 15.7934 8.88567 15.8642 8.89656L15.9027 8.90171L16.0278 8.91982C16.1651 8.94 16.3021 8.96266 16.4387 8.98783C16.9852 9.08763 17.5244 9.22324 18.0528 9.39379C18.3175 9.47902 18.5785 9.57283 18.8358 9.6752C18.8941 9.69846 18.952 9.72206 19.0104 9.74594C19.0742 9.77222 18.9396 9.7157 19.003 9.7432L19.0379 9.75772L19.1413 9.80245C19.2675 9.85725 19.3926 9.91419 19.5171 9.97325C20.0063 10.2058 20.4797 10.4692 20.9346 10.7618C21.1608 10.9075 21.3822 11.0603 21.5988 11.2201C21.6511 11.2586 21.703 11.2975 21.7545 11.3368C21.8065 11.3761 21.7066 11.2996 21.7411 11.3265L21.7778 11.3546L21.8654 11.4232C21.972 11.5072 22.077 11.593 22.1807 11.6804C22.5907 12.0262 22.9781 12.3973 23.3407 12.7916C23.52 12.9864 23.6927 13.1868 23.8597 13.3928C23.9023 13.4454 23.9435 13.4995 23.9861 13.5518C23.9217 13.4732 23.9898 13.5566 24.0041 13.5751C24.0267 13.6053 24.049 13.6337 24.0713 13.6633C24.1528 13.7715 24.2325 13.8809 24.3109 13.9915C24.6211 14.4311 24.9023 14.89 25.1529 15.3653C25.2775 15.6015 25.3944 15.8416 25.5034 16.0854C25.5315 16.1476 25.5574 16.2111 25.5858 16.2734C25.5837 16.2692 25.5553 16.2003 25.5755 16.2493L25.5971 16.3009C25.6114 16.3353 25.6258 16.3702 25.6398 16.4046C25.6915 16.5322 25.7409 16.6603 25.7885 16.789C25.834 16.9127 25.8773 17.0371 25.9189 17.1617C25.9714 17.3189 26.1429 17.438 26.3132 17.3833C26.4717 17.3325 26.5933 17.1617 26.5371 16.9927C25.6389 14.2742 23.8485 11.931 21.4505 10.3358C19.0528 8.74054 16.185 7.98488 13.3035 8.18894C13.1147 8.20226 12.9259 8.21977 12.7376 8.24154C12.6496 8.25151 12.5758 8.27177 12.5108 8.33465C12.4511 8.39442 12.4174 8.47493 12.417 8.55894C12.424 8.71459 12.5593 8.89685 12.7376 8.8763L12.7372 8.8751Z" fill="white"/>
<path d="M2.60483 17.1657C2.71026 16.8422 2.82856 16.5244 2.95969 16.212C2.94885 16.2375 2.93829 16.263 2.92775 16.2881C3.25318 15.512 3.65565 14.7709 4.12907 14.0762C4.26222 13.8805 4.40079 13.6885 4.54477 13.5001C4.52821 13.5213 4.51195 13.5428 4.49537 13.5644C4.75082 13.2319 5.02193 12.9125 5.30871 12.6062C5.59548 12.3 5.89551 12.0107 6.20879 11.7385C6.38672 11.5832 6.56876 11.4332 6.75492 11.2885L6.69107 11.3382C7.23853 10.9128 7.81996 10.5336 8.42948 10.2045C8.60359 10.1105 8.77994 10.0209 8.95849 9.93556C9.02652 9.9028 9.08437 9.81609 9.10366 9.74516C9.12545 9.66234 9.11409 9.5742 9.07169 9.49985C9.02995 9.42834 8.96219 9.37594 8.8828 9.35368C8.80042 9.3347 8.71394 9.34613 8.63914 9.38582C8.04053 9.67289 7.46557 10.0075 6.9197 10.3864C5.79839 11.1596 4.80733 12.1085 3.98418 13.1972C3.58333 13.7218 3.22423 14.2775 2.91029 14.8591C2.58067 15.4707 2.30035 16.108 2.07194 16.7648C2.04505 16.8415 2.01915 16.9183 1.99423 16.9955C1.94241 17.1538 2.05448 17.3502 2.21504 17.3873C2.29585 17.4079 2.38146 17.3962 2.45397 17.3548C2.52648 17.3134 2.5803 17.2454 2.60423 17.165L2.60483 17.1657Z" fill="white"/>
<path d="M15.8208 10.4853C16.572 10.5957 17.3104 10.7787 18.0253 11.0318C18.223 11.1017 18.4186 11.177 18.612 11.2575L18.5363 11.2258C19.2597 11.5272 19.9504 11.8999 20.5978 12.3382C20.7794 12.4608 20.9572 12.5885 21.1307 12.7212L21.0662 12.6722C21.6823 13.1424 22.25 13.6719 22.7603 14.2528C22.9037 14.4166 23.0427 14.5842 23.1769 14.7557L23.1272 14.6923C23.6029 15.3006 24.016 15.9542 24.3602 16.6437C24.4582 16.8404 24.5507 17.0397 24.6372 17.2415C24.666 17.3085 24.7598 17.3675 24.8274 17.3857C24.91 17.4075 24.9981 17.3961 25.0723 17.3543C25.1438 17.3126 25.1958 17.2454 25.2183 17.1666C25.2223 17.1387 25.2258 17.1109 25.2298 17.0831C25.2298 17.0274 25.2146 16.9728 25.1862 16.9247C24.8834 16.2187 24.51 15.5443 24.0716 14.9117C22.7191 12.9492 20.7998 11.4342 18.563 10.5639C17.8269 10.275 17.0627 10.0614 16.2824 9.92647C16.1849 9.90975 16.0873 9.89418 15.9897 9.87985C15.9019 9.86699 15.8243 9.86551 15.7447 9.91154C15.7086 9.93229 15.6771 9.95983 15.6517 9.99266C15.6265 10.0255 15.608 10.0629 15.5974 10.1028C15.5867 10.1427 15.5842 10.1842 15.5899 10.2251C15.5957 10.266 15.6094 10.3053 15.6306 10.3408C15.6723 10.4048 15.7407 10.4736 15.8208 10.4853Z" fill="white"/>
<path d="M10.724 10.7852C11.2467 10.6221 11.7799 10.4938 12.3201 10.4011C12.4746 10.3746 12.6296 10.3512 12.7853 10.3307L12.6971 10.3422C12.9761 10.3056 13.2562 10.2782 13.5374 10.2599C13.6253 10.2579 13.7092 10.2238 13.7726 10.1644C13.8348 10.1032 13.8698 10.0204 13.8698 9.93401C13.8698 9.84762 13.8348 9.76478 13.7726 9.70363C13.7418 9.67335 13.7051 9.64934 13.6648 9.63299C13.6244 9.61664 13.5812 9.60828 13.5374 9.6084C12.7372 9.65868 11.9436 9.78334 11.1673 9.9807C10.9591 10.0338 10.7525 10.0925 10.5475 10.1566C10.4647 10.1809 10.3939 10.2342 10.3487 10.3065C10.3267 10.3434 10.3123 10.3843 10.3063 10.4267C10.3004 10.4691 10.303 10.5122 10.3141 10.5536C10.3252 10.5951 10.3445 10.6339 10.3709 10.668C10.3973 10.7021 10.4304 10.7307 10.468 10.7523C10.5064 10.7741 10.5488 10.7881 10.5927 10.7937C10.6367 10.7993 10.6813 10.7963 10.724 10.7849V10.7852Z" fill="white"/>
<path d="M3.75812 17.2398C4.06052 16.5138 4.43435 15.8205 4.87396 15.1703C4.9975 14.9878 5.12608 14.8089 5.25962 14.6339L5.21005 14.6984C5.68175 14.0801 6.21277 13.5108 6.79536 12.9987C6.95995 12.8538 7.12857 12.7138 7.30116 12.5787L7.23748 12.6286C7.5959 12.348 7.97017 12.0889 8.35842 11.8526C8.46934 11.785 8.58129 11.7195 8.69422 11.656C8.72996 11.6348 8.76127 11.6067 8.78631 11.5733C8.81133 11.5399 8.82962 11.5017 8.84014 11.4611C8.85056 11.4206 8.8532 11.3783 8.8475 11.3367C8.84188 11.2951 8.82821 11.2551 8.8073 11.2188C8.7864 11.1826 8.75868 11.1509 8.72567 11.1255C8.69266 11.1002 8.65505 11.0816 8.61499 11.071C8.57492 11.0604 8.53319 11.0578 8.49217 11.0635C8.45111 11.0692 8.41162 11.0831 8.37584 11.1042C7.93506 11.3525 7.51075 11.6296 7.10562 11.9339C6.68596 12.2476 6.28646 12.5881 5.90959 12.9533C5.54751 13.3061 5.2084 13.6822 4.89438 14.0793C4.56519 14.4933 4.26269 14.9282 3.9888 15.3816C3.72631 15.8184 3.49243 16.2722 3.28866 16.7401C3.26305 16.7985 3.23799 16.8573 3.21358 16.9163C3.19083 16.9518 3.17798 16.9927 3.17633 17.035C3.1669 17.0772 3.16876 17.1213 3.18173 17.1625C3.2043 17.2426 3.25619 17.3109 3.32681 17.3534C3.36319 17.3747 3.4034 17.3886 3.44513 17.3942C3.48682 17.3997 3.52922 17.3968 3.5698 17.3856C3.64218 17.3618 3.72719 17.3131 3.75812 17.2389V17.2398Z" fill="white"/>
<path d="M14.2988 8.45795C14.2988 8.39733 14.2959 8.33674 14.2946 8.27611C14.2909 8.11247 14.2869 7.94873 14.2829 7.78487L14.2658 7.05754L14.2448 6.16322C14.237 5.83652 14.2293 5.50984 14.2216 5.18312L14.1988 4.18818C14.1917 3.87482 14.1844 3.56167 14.1773 3.24873L14.1592 2.44532C14.1547 2.24631 14.1504 2.0473 14.1465 1.8483C14.1442 1.74223 14.1417 1.63618 14.1408 1.53071C14.1401 1.49181 14.1424 1.45292 14.1474 1.41433L14.1354 1.49889C14.1442 1.44107 14.1605 1.38447 14.1836 1.33038C14.1722 1.35555 14.161 1.381 14.1499 1.40644C14.1746 1.35056 14.2066 1.29792 14.2452 1.24978L14.1929 1.31433C14.2317 1.26688 14.2763 1.22415 14.326 1.18704L14.2585 1.23705C14.3088 1.20021 14.3639 1.16966 14.4224 1.14612L14.3428 1.17824C14.3994 1.15624 14.4586 1.14086 14.5191 1.13249L14.4306 1.1437C14.4971 1.13551 14.5642 1.13551 14.6305 1.1437L14.542 1.13249C14.6026 1.14086 14.6619 1.15624 14.7187 1.17824L14.6391 1.14612C14.6974 1.16966 14.7524 1.20021 14.8027 1.23705L14.7355 1.18704C14.7852 1.22409 14.8297 1.26682 14.8684 1.31433L14.8163 1.24978C14.8548 1.29801 14.8867 1.35062 14.9116 1.40644C14.9001 1.381 14.889 1.35555 14.8779 1.33038C14.9009 1.3845 14.917 1.44107 14.9258 1.49889C14.9217 1.47069 14.9179 1.44253 14.9137 1.41433C14.9293 1.52766 14.9207 1.64676 14.9207 1.76072V8.22489C14.9207 8.3125 14.9207 8.39977 14.9207 8.48706V8.49826C14.9217 8.58252 14.9567 8.66315 15.0184 8.72342C15.0651 8.7679 15.1244 8.79815 15.189 8.81042C15.2536 8.82266 15.3205 8.81631 15.3813 8.79223C15.4422 8.76814 15.4941 8.72734 15.5307 8.67503C15.5673 8.62268 15.5868 8.56119 15.5868 8.49826V1.58979C15.5888 1.48819 15.5801 1.38668 15.5608 1.28674C15.5266 1.13754 15.457 0.997883 15.3573 0.878572C15.2574 0.759259 15.1302 0.66355 14.9854 0.598817C14.8264 0.526468 14.6511 0.492953 14.4751 0.501233C14.2128 0.514077 13.9651 0.620062 13.7803 0.798396C13.5957 0.976729 13.4873 1.21454 13.4766 1.46525C13.4696 1.5722 13.4766 1.68103 13.4798 1.78801C13.484 1.99469 13.4884 2.20116 13.4931 2.40745C13.499 2.69533 13.5053 2.98325 13.5122 3.27116C13.5201 3.60958 13.528 3.94818 13.5356 4.28701L13.5604 5.35801C13.5686 5.7057 13.5768 6.05321 13.5847 6.40051C13.592 6.70638 13.5991 7.01207 13.6064 7.31756C13.612 7.5503 13.6176 7.78264 13.6229 8.01459L13.6324 8.40551V8.45614C13.634 8.54027 13.6688 8.62073 13.73 8.68132C13.7927 8.74046 13.8773 8.77386 13.9654 8.77433C14.1427 8.76678 14.3029 8.63432 14.2984 8.45614L14.2988 8.45795Z" fill="white"/>
<path d="M8.76816 8.62478C8.75222 8.66606 8.7375 8.70826 8.72341 8.74983C8.68325 8.86646 8.64616 8.98399 8.61122 9.10218C8.5587 9.27913 8.51098 9.45733 8.46806 9.63678C8.41411 9.8625 8.3676 10.0898 8.32858 10.3186C8.28016 10.6035 8.24245 10.8911 8.21823 11.1793C8.19372 11.4612 8.18513 11.7443 8.19249 12.0272C8.20117 12.344 8.2326 12.6598 8.28659 12.972C8.33566 13.263 8.41224 13.5485 8.51527 13.8245C8.62652 14.128 8.77264 14.417 8.95053 14.6855C9.13771 14.9655 9.36081 15.2187 9.61391 15.4383C9.69422 15.5071 9.7773 15.5724 9.86132 15.6355L9.93819 15.6687C9.9798 15.6823 10.0241 15.6844 10.0667 15.6746C10.1363 15.6668 10.2012 15.635 10.2506 15.5843C10.2881 15.5427 10.3164 15.4934 10.3334 15.4395C10.3613 15.3511 10.3351 15.2667 10.3009 15.1866L10.2991 15.182L10.3312 15.2601C10.3026 15.1907 10.2785 15.1194 10.2557 15.0478C10.205 14.8871 10.1629 14.7236 10.1295 14.5582C10.1037 14.4319 10.0826 14.305 10.0658 14.1775C10.0694 14.2066 10.0735 14.2356 10.077 14.2646C10.03 13.9069 10.0181 13.5453 10.0419 13.1852C10.0498 13.0695 10.0612 12.9541 10.0761 12.8391C10.0725 12.8682 10.0684 12.8972 10.0649 12.9263C10.1111 12.5764 10.1921 12.2323 10.3063 11.899C10.3419 11.7948 10.3806 11.6928 10.4222 11.5929C10.4115 11.6189 10.4005 11.6451 10.3897 11.6714C10.5341 11.3247 10.7121 10.9938 10.9212 10.6835C10.986 10.5872 11.0537 10.4928 11.1236 10.4002L11.0733 10.4668C11.3594 10.093 11.6814 9.74936 12.0346 9.44109C12.1472 9.3423 12.2622 9.24662 12.3795 9.15408L12.3142 9.20566C12.5098 9.05155 12.7127 8.90617 12.9184 8.76797C12.9897 8.72335 13.0424 8.65359 13.0664 8.57197C13.0885 8.48658 13.0769 8.39574 13.0339 8.31904C13.0127 8.28179 12.9843 8.24917 12.9506 8.22308C12.9169 8.19701 12.8786 8.17794 12.8376 8.16699C12.7967 8.15605 12.7542 8.15344 12.7122 8.1593C12.6703 8.16518 12.63 8.1794 12.5934 8.2012C12.1736 8.47866 11.7765 8.79041 11.4063 9.13345C11.0883 9.43168 10.7975 9.75844 10.5368 10.1098C9.91904 10.9233 9.53346 11.8951 9.42263 12.9179C9.39331 13.1698 9.38182 13.4236 9.38803 13.6773C9.39516 13.9226 9.41695 14.1671 9.45302 14.4097C9.47732 14.583 9.51048 14.7548 9.55195 14.9247C9.58075 15.0426 9.61324 15.1598 9.65221 15.2748C9.67004 15.3282 9.68907 15.3812 9.7098 15.433C9.72156 15.4612 9.73279 15.4895 9.74507 15.5177L10.1853 15.0684C10.1617 15.0506 10.1384 15.0328 10.1155 15.0147L10.1805 15.0659C9.9481 14.8828 9.73966 14.6703 9.56001 14.4335L9.61021 14.5001C9.4225 14.2497 9.26716 13.9758 9.14762 13.6851C9.15845 13.7113 9.16941 13.7373 9.18011 13.7635C9.05977 13.4676 8.97074 13.1594 8.91473 12.8441C8.89875 12.7559 8.88488 12.6673 8.87299 12.5783C8.87696 12.6074 8.88066 12.6368 8.88462 12.6659C8.82301 12.1645 8.8157 11.6577 8.86282 11.1546C8.87458 11.0225 8.88898 10.8906 8.90641 10.7588L8.89505 10.846C8.94921 10.4409 9.02741 10.0395 9.12925 9.64399C9.19055 9.39981 9.26267 9.15751 9.34391 8.9193C9.35791 8.87896 9.37178 8.83865 9.3871 8.79862C9.4159 8.7242 9.39265 8.61103 9.35487 8.54568C9.31194 8.47217 9.24312 8.41818 9.16241 8.39471C9.12093 8.38329 9.07774 8.38036 9.03507 8.38603C8.99254 8.39171 8.95159 8.40593 8.91434 8.42784L8.8494 8.4791C8.80979 8.51926 8.78116 8.56926 8.76633 8.62416L8.76816 8.62478Z" fill="white"/>
<path d="M12.5628 8.57077C12.6073 8.68488 12.652 8.79916 12.6964 8.91365L13.0175 9.73529L13.4047 10.7259L13.7403 11.5852C13.7946 11.7243 13.849 11.8633 13.9034 12.0023L13.9055 12.0082C13.9378 12.0902 13.9744 12.1572 14.0512 12.2037C14.087 12.2254 14.1268 12.2396 14.1679 12.2454C14.2091 12.2513 14.251 12.2487 14.2913 12.2378C14.3314 12.2269 14.3692 12.208 14.4024 12.182C14.4355 12.156 14.4632 12.1236 14.4842 12.0864C14.5216 12.0135 14.5475 11.9141 14.5162 11.834L14.3827 11.4911L14.0614 10.6692L13.6743 9.67887L13.3386 8.81953C13.2843 8.6805 13.23 8.54149 13.1755 8.40245L13.1734 8.39655C13.1411 8.31424 13.1047 8.24754 13.0278 8.2011C12.9919 8.17937 12.9522 8.16516 12.911 8.15932C12.8698 8.15344 12.8279 8.15603 12.7878 8.16691C12.7475 8.17781 12.7098 8.19678 12.6767 8.22276C12.6435 8.24871 12.6158 8.2812 12.5948 8.31831C12.5577 8.39092 12.5314 8.49067 12.5628 8.57045V8.57077Z" fill="white"/>
<path d="M16.2718 8.5393L16.1406 8.86818L15.827 9.65433L15.4482 10.6048C15.3384 10.8797 15.2288 11.1546 15.1191 11.4296C15.0662 11.5624 15.0108 11.6949 14.9601 11.8286C14.9592 11.8304 14.9585 11.8323 14.9578 11.8342L15.2693 11.5942H14.2453L14.5568 11.8342L14.4205 11.4913L14.0928 10.6693L13.6975 9.67898L13.355 8.81954C13.2995 8.68052 13.2441 8.54152 13.1884 8.40247L13.1863 8.39653C13.1534 8.31425 13.1162 8.24754 13.0377 8.2011C13.0011 8.17937 12.9606 8.16516 12.9186 8.15932C12.8766 8.15344 12.8338 8.15603 12.7927 8.16691C12.7516 8.17778 12.7132 8.19678 12.6794 8.22277C12.6455 8.24872 12.6171 8.28121 12.5957 8.31829C12.5578 8.39094 12.531 8.49068 12.5631 8.57048C12.6087 8.68456 12.6541 8.79887 12.6994 8.91338L13.0272 9.73508L13.4224 10.7257L13.7649 11.5851C13.8204 11.7241 13.8755 11.8635 13.9315 12.0022L13.9336 12.0081C13.9447 12.034 13.9555 12.0602 13.9662 12.0864C13.9858 12.1237 14.0146 12.1552 14.0496 12.178C14.1052 12.2232 14.1741 12.248 14.2453 12.2485H15.2693C15.3405 12.2477 15.4093 12.2229 15.4651 12.178C15.5192 12.134 15.5595 12.0749 15.5811 12.0081L15.7122 11.679L16.0256 10.8931L16.4047 9.94236L16.7334 9.11786C16.7863 8.98506 16.8436 8.85288 16.8925 8.71854L16.895 8.71294C16.9242 8.63936 16.8999 8.5259 16.8624 8.46076C16.841 8.42361 16.8126 8.39112 16.7787 8.3651C16.7449 8.33908 16.7064 8.32009 16.6653 8.30918C16.6242 8.29824 16.5814 8.29563 16.5393 8.3015C16.4973 8.30735 16.4567 8.32153 16.4201 8.34326L16.3549 8.39436C16.3152 8.43449 16.2867 8.48432 16.2718 8.539V8.5393Z" fill="white"/>
<path d="M1.87995 21.3983C1.84962 21.3397 1.82353 21.2795 1.79653 21.2197C1.78288 21.1891 1.76923 21.1583 1.75588 21.1277C1.74891 21.1111 1.74193 21.0946 1.73464 21.0779C1.70188 21.0015 1.76012 21.1412 1.72706 21.0599C1.68611 20.9595 1.64638 20.8592 1.60786 20.7579C1.35612 20.0863 1.1452 19.3997 0.976308 18.7021C0.835258 18.1301 0.718475 17.5523 0.620501 16.971L0.313225 17.3792L3.29167 17.4712L8.03978 17.617L9.13175 17.6505L8.8566 17.4909L9.56978 18.4927C9.66832 18.6312 9.75457 18.7689 9.94532 18.7769C10.0024 18.7793 10.06 18.7769 10.117 18.7769H17.8693C18.0902 18.7769 18.3286 18.8198 18.4782 18.6167C18.7223 18.2844 18.9569 17.9441 19.1958 17.6081L19.2793 17.4909L19.0042 17.6505L21.9823 17.5583L26.7307 17.4129L27.8227 17.3795L27.5155 16.9713C27.361 17.9115 27.1456 18.8404 26.8708 19.752C26.778 20.0565 26.6773 20.3581 26.5674 20.6563C26.5271 20.7682 26.4841 20.8797 26.4386 20.9905C26.4289 21.0138 26.4195 21.0371 26.4083 21.0608C26.3779 21.1338 26.4228 21.0274 26.4083 21.0638C26.3937 21.1004 26.3779 21.1377 26.3606 21.1746C26.3275 21.2505 26.2941 21.3262 26.2566 21.4002C26.1783 21.5536 26.2168 21.7496 26.3709 21.8408C26.5131 21.9252 26.7279 21.8807 26.8068 21.7254C26.9294 21.4736 27.0389 21.2155 27.1348 20.9521C27.3877 20.2807 27.5997 19.594 27.7693 18.8962C27.9125 18.3173 28.0314 17.7327 28.1302 17.1444C28.1636 16.9469 28.0471 16.7296 27.8232 16.7366L26.6645 16.772L24.0162 16.8532L21.1184 16.9423L19.2119 17.0005C19.009 17.0069 18.8534 16.9965 18.7126 17.1907C18.4714 17.5236 18.2355 17.8612 17.9968 18.1966L17.9283 18.293L18.2033 18.1334H9.93343L10.2083 18.293L9.54732 17.3642C9.43689 17.2089 9.34112 17.0227 9.13083 17.0069C9.09754 17.0044 9.06346 17.0048 9.03017 17.0039L7.33148 16.9518L4.48863 16.8645L1.74253 16.7802C1.2745 16.766 0.802196 16.7301 0.333238 16.7373H0.312618C0.0887458 16.7301 -0.0277344 16.9474 0.00563243 17.145C0.255289 18.6277 0.619589 20.1157 1.22232 21.4956C1.2566 21.5735 1.29087 21.6518 1.32939 21.7275C1.40766 21.8809 1.62242 21.9274 1.76498 21.8429C1.92059 21.7509 1.95821 21.5575 1.87934 21.4023L1.87995 21.3983Z" fill="white"/>
<path d="M3.13008 25.3509L3.31039 26.039L3.75371 27.733C3.94062 28.4474 4.1277 29.1623 4.31501 29.877L4.84681 31.9089L5.20712 33.2851C5.23084 33.3763 5.25212 33.4676 5.27828 33.5568C5.31993 33.6992 5.41723 33.7528 5.52912 33.8186L6.68152 34.4981L8.53264 35.5892L10.3354 36.6519L11.362 37.257L11.4111 37.2873C11.4782 37.3258 11.5567 37.3386 11.6324 37.3234C11.7081 37.3082 11.7757 37.2665 11.8229 37.2055C11.9259 37.0723 11.9004 36.9111 11.7979 36.7866L11.2959 36.1791L10.0366 34.6511L8.37027 32.6297L6.63803 30.5263C6.16309 29.95 5.68824 29.3739 5.21351 28.7982L4.43693 27.8566C4.38263 27.7923 4.31723 27.7384 4.24385 27.6972C3.96349 27.5273 3.69193 27.3435 3.4302 27.1462C3.40647 27.1291 3.38337 27.1111 3.35995 27.0936C3.33654 27.076 3.26174 27.0173 3.34627 27.0833C3.29245 27.0412 3.23833 26.999 3.18513 26.9564C3.08092 26.8725 2.97836 26.787 2.87741 26.6995C2.65241 26.5041 2.43592 26.2989 2.23097 26.0826C2.1205 25.9663 2.01379 25.8466 1.91079 25.724C1.8655 25.6695 1.82141 25.6144 1.77731 25.5592C1.73323 25.5045 1.82019 25.6161 1.77519 25.5565L1.73658 25.5056C1.71103 25.4715 1.6858 25.4369 1.66086 25.4024C1.4721 25.1422 1.30763 24.8657 1.1695 24.5755C1.15429 24.5432 1.13909 24.511 1.1251 24.478C1.12176 24.4702 1.09469 24.4044 1.1172 24.4607C1.10595 24.4337 1.09501 24.4071 1.08406 24.3799C1.04614 24.2842 1.01068 24.1878 0.977633 24.0905C0.914545 23.9056 0.863769 23.7167 0.825607 23.525C0.818011 23.4867 0.81101 23.4482 0.80463 23.4096C0.800971 23.387 0.797629 23.3643 0.794287 23.3415C0.785173 23.2808 0.794287 23.354 0.796414 23.3595C0.780603 23.327 0.785781 23.2649 0.782729 23.2285C0.779387 23.1867 0.776653 23.1442 0.77483 23.1019C0.771395 23.0284 0.771395 22.9547 0.77483 22.8808C0.77483 22.8489 0.777868 22.817 0.780602 22.7851C0.780602 22.7666 0.78364 22.7481 0.785477 22.7293C0.785477 22.718 0.796414 22.6382 0.788515 22.6989C0.780603 22.7596 0.788515 22.6989 0.790641 22.6879C0.793376 22.6702 0.796414 22.653 0.799756 22.6357C0.804934 22.6078 0.81101 22.5796 0.817707 22.5516C0.832449 22.4877 0.851021 22.4248 0.873345 22.3632C0.87851 22.3484 0.884296 22.3328 0.889764 22.3192C0.900715 22.2889 0.910741 22.3064 0.875472 22.3526C0.890557 22.3264 0.903357 22.299 0.913779 22.2707C0.937952 22.2234 0.965044 22.1777 0.994963 22.1339C1.00257 22.1224 1.01138 22.1115 1.01899 22.1C1.0494 22.0532 0.96548 22.1625 1.00288 22.121C1.01808 22.1042 1.03328 22.0862 1.04727 22.0699C1.08376 22.0307 1.12541 21.9994 1.16342 21.9627C1.08801 22.0353 1.13301 21.9866 1.1616 21.9676C1.18136 21.9548 1.20112 21.9426 1.2224 21.931C1.2437 21.9195 1.26406 21.9104 1.28322 21.9006C1.33156 21.8758 1.20264 21.931 1.25281 21.9128C1.26467 21.909 1.27653 21.9041 1.28869 21.8997C1.33351 21.8852 1.37921 21.8736 1.42552 21.8649C1.50153 21.849 1.34191 21.8709 1.41822 21.8649C1.44863 21.8628 1.48055 21.8602 1.51157 21.8602C1.55779 21.8602 1.60279 21.8691 1.6493 21.8691C1.53437 21.8691 1.62741 21.867 1.66359 21.8746C1.694 21.8816 1.72684 21.8894 1.75816 21.8985C1.78948 21.9076 1.81411 21.9162 1.84147 21.9265C1.86884 21.9368 1.9114 21.9645 1.82961 21.9204C1.84481 21.9284 1.86002 21.9344 1.87674 21.9417C1.933 21.9692 1.98745 22.0002 2.03972 22.0346C2.068 22.0535 2.09446 22.0745 2.12242 22.0935C2.03546 22.0328 2.11786 22.0918 2.13671 22.1079C2.18746 22.1521 2.23578 22.1992 2.28145 22.2487C2.3006 22.2693 2.31915 22.2903 2.3374 22.312C2.35564 22.3335 2.42223 22.4285 2.36081 22.3386C2.39517 22.3891 2.43256 22.4367 2.46601 22.4878C2.53269 22.5905 2.59299 22.6972 2.64662 22.8073C2.66852 22.852 2.68959 22.897 2.70987 22.9424C2.71535 22.9555 2.72051 22.9692 2.72689 22.9819C2.68069 22.889 2.70683 22.9343 2.71626 22.9576C2.72568 22.981 2.73663 23.0078 2.74667 23.033C2.77789 23.1139 2.80647 23.196 2.83241 23.2792C2.85521 23.3527 2.87741 23.4274 2.89323 23.5028C2.9288 23.6662 3.12826 23.7762 3.28607 23.7255C3.36665 23.7014 3.43481 23.6471 3.47635 23.5741C3.51788 23.5011 3.52956 23.4148 3.50894 23.3333C3.43885 23.0341 3.33213 22.7446 3.1912 22.4714C2.9373 21.9608 2.54446 21.5013 1.99473 21.3054C1.50823 21.1322 0.943275 21.237 0.589054 21.6237C0.189815 22.0598 0.0919066 22.6907 0.146026 23.2607C0.282557 24.7012 1.12449 25.9451 2.15831 26.911C2.55343 27.2777 2.97465 27.6158 3.41864 27.9219C3.54999 28.0131 3.68347 28.1012 3.81908 28.1861C3.87467 28.2245 3.93254 28.2593 3.9924 28.2905C3.91638 28.2558 3.91395 28.223 3.95895 28.2775C3.99149 28.3169 4.02372 28.3562 4.05625 28.3957L4.42568 28.8439C4.8532 29.3621 5.2805 29.8806 5.70761 30.3992L7.40579 32.4593L9.1514 34.577L10.5763 36.3051C10.8211 36.6022 11.066 36.8994 11.3109 37.1968L11.3434 37.2361L11.7304 36.7352L11.1333 36.3836L9.7091 35.5425L7.9838 34.5255L6.48601 33.6429C6.24428 33.5002 6.00619 33.3466 5.75899 33.2144L5.74927 33.2086L5.89581 33.3988L5.68145 32.5789C5.50957 31.9232 5.33786 31.2671 5.16638 30.6117C4.9594 29.8222 4.75255 29.0317 4.54579 28.2406L4.00943 26.1917C3.92247 25.86 3.84372 25.5235 3.74854 25.1952C3.74702 25.1907 3.74581 25.1858 3.74459 25.1809C3.70232 25.0196 3.51442 24.9057 3.35205 24.9583C3.27126 24.982 3.20288 25.0362 3.16124 25.1095C3.11962 25.1828 3.10804 25.2691 3.12887 25.3505L3.13008 25.3509Z" fill="white"/>
<path d="M24.2566 25.1794C24.1851 25.4526 24.1133 25.7259 24.0418 25.9992C23.8703 26.6551 23.6989 27.3107 23.527 27.9664C23.3199 28.7562 23.1132 29.5463 22.9061 30.337L22.3696 32.3856C22.283 32.717 22.1826 33.0476 22.1087 33.382C22.1087 33.3869 22.1064 33.3914 22.105 33.3965L22.2519 33.206L21.655 33.5577L20.2283 34.3986L18.5029 35.4152L17.0052 36.2981C16.7619 36.4406 16.5141 36.5747 16.278 36.7266C16.275 36.7287 16.2717 36.7308 16.2684 36.7322L16.6551 37.2332L17.1678 36.6114L18.4639 35.0398L20.1668 32.9746L21.9144 30.8548L23.3281 29.1402C23.5665 28.8512 23.805 28.562 24.0437 28.2725C24.0878 28.2189 24.0756 28.2556 24.0086 28.288C24.0726 28.254 24.1343 28.2165 24.1942 28.176C24.5525 27.9497 24.8976 27.7032 25.2281 27.4382C25.6971 27.0703 26.1285 26.6575 26.5163 26.2054C26.9846 25.6518 27.3592 25.0458 27.6049 24.3623C27.8363 23.7182 27.9722 22.9727 27.7803 22.3003C27.6411 21.8146 27.2896 21.359 26.7707 21.253C26.1973 21.1351 25.6249 21.396 25.2452 21.8221C24.9189 22.1866 24.6996 22.6393 24.5542 23.1039C24.5308 23.1792 24.5084 23.2558 24.4916 23.3322C24.4563 23.4947 24.5399 23.6848 24.7146 23.7243C24.8753 23.7611 25.0698 23.676 25.1074 23.5017C25.1247 23.4216 25.1485 23.3423 25.173 23.264C25.2004 23.1775 25.2309 23.0919 25.2643 23.0071C25.2728 22.9859 25.2816 22.9649 25.2898 22.9439C25.3111 22.8904 25.2561 23.021 25.2798 22.9679L25.2914 22.9415C25.3154 22.8863 25.3409 22.8321 25.368 22.7787C25.4218 22.671 25.4823 22.5666 25.5486 22.4661C25.5656 22.4409 25.5827 22.4161 25.6006 22.3914C25.6149 22.3715 25.6809 22.2955 25.6107 22.376C25.6551 22.325 25.6959 22.2721 25.7426 22.2242C25.7852 22.1793 25.8302 22.1367 25.8774 22.0967C25.9005 22.0769 25.9783 22.0322 25.8919 22.0833C25.9208 22.0663 25.9472 22.0435 25.9755 22.0252C26.0282 21.991 26.0832 21.9607 26.1401 21.9342C26.166 21.9223 26.2118 21.9165 26.127 21.9386C26.138 21.9352 26.149 21.931 26.1595 21.9262C26.1982 21.9121 26.2375 21.8996 26.2772 21.8889C26.3019 21.8821 26.3268 21.8765 26.352 21.8716C26.366 21.8685 26.3804 21.8667 26.3946 21.8637C26.4496 21.8518 26.3186 21.8716 26.3587 21.8683C26.411 21.8627 26.464 21.8601 26.5166 21.8606C26.5409 21.8606 26.5652 21.8634 26.5895 21.8652C26.62 21.8674 26.6403 21.8837 26.55 21.8594C26.5625 21.8627 26.5759 21.8634 26.5887 21.8658C26.637 21.8751 26.6845 21.8883 26.7307 21.905C26.8106 21.9353 26.6635 21.8707 26.7307 21.905C26.7495 21.9147 26.7686 21.9239 26.7872 21.9353C26.8057 21.9468 26.8314 21.9615 26.8522 21.9757C26.8592 21.9806 26.8662 21.986 26.8736 21.9907C26.9164 22.018 26.8036 21.9299 26.8601 21.9804C26.8973 22.0116 26.9323 22.0453 26.9652 22.0808C26.98 22.0972 26.9928 22.1182 27.0089 22.1327C26.9463 22.0759 26.9736 22.085 26.9925 22.1124C27.0004 22.124 27.0086 22.1352 27.0165 22.1469C27.046 22.1913 27.0724 22.2375 27.0962 22.2852C27.1032 22.2994 27.1427 22.3879 27.1177 22.3298C27.0928 22.2718 27.115 22.3244 27.1193 22.3351C27.1266 22.3547 27.1338 22.3744 27.1406 22.3958C27.1591 22.4504 27.1747 22.506 27.1877 22.5621C27.1947 22.5925 27.2011 22.6228 27.2069 22.6553C27.2099 22.6727 27.2126 22.6903 27.2153 22.7078C27.2254 22.7671 27.2072 22.6298 27.2139 22.6949C27.2296 22.8446 27.234 22.9954 27.2256 23.1459C27.2235 23.1814 27.2212 23.2169 27.2179 23.2521C27.2144 23.2874 27.2193 23.3332 27.206 23.3614L27.2114 23.3214L27.205 23.3663L27.1941 23.4347C27.1859 23.4812 27.177 23.5276 27.1677 23.5741C27.128 23.7584 27.0773 23.9401 27.0156 24.1182C26.9821 24.216 26.9459 24.3127 26.9068 24.4086C26.9045 24.4142 26.8669 24.5025 26.8937 24.4407L26.8681 24.4995C26.8505 24.5385 26.8325 24.5773 26.8139 24.6162C26.6732 24.9047 26.5065 25.18 26.3159 25.4386C26.2949 25.4673 26.2739 25.4961 26.2523 25.5244C26.2396 25.5413 26.2274 25.5591 26.2137 25.5749C26.2636 25.5174 26.2352 25.5471 26.2244 25.5609C26.1714 25.6273 26.1184 25.6929 26.0638 25.7578C25.9624 25.8775 25.8576 25.9937 25.7494 26.1067C25.5465 26.3193 25.3325 26.5213 25.1107 26.7142C25.0056 26.8047 24.8984 26.8937 24.79 26.9804L24.7225 27.034L24.6823 27.0642C24.6744 27.0703 24.6291 27.1054 24.6749 27.0701L24.6683 27.0752L24.6294 27.1054L24.5534 27.1627C24.3913 27.2828 24.2261 27.3986 24.0579 27.5098C23.9565 27.577 23.854 27.642 23.7496 27.7045C23.7013 27.7284 23.6562 27.759 23.6165 27.7956C23.5556 27.8604 23.503 27.9327 23.447 28.0012L23.0475 28.4854L21.7465 30.0648C21.184 30.7467 20.6218 31.4289 20.0594 32.1113L18.3425 34.1933L16.9531 35.8783L16.2364 36.7477L16.206 36.7865C16.1038 36.9103 16.0776 37.0715 16.1811 37.2053C16.2282 37.2665 16.296 37.3083 16.3717 37.3234C16.4475 37.3385 16.5261 37.3255 16.5931 37.2871L17.3208 36.8583L19.0097 35.8628L20.9179 34.7393L22.3009 33.924C22.39 33.8716 22.4834 33.822 22.5691 33.7663C22.6956 33.6848 22.719 33.5873 22.7516 33.4625C22.851 33.0837 22.9504 32.7045 23.0493 32.3261L23.5546 30.3952L24.1228 28.2266L24.6062 26.3802C24.6917 26.0533 24.7772 25.7263 24.8629 25.3995L24.8748 25.3541C24.9171 25.193 24.8213 25.0004 24.6518 24.962C24.4825 24.9232 24.3043 25.0119 24.259 25.1846L24.2566 25.1794Z" fill="white"/>
<path d="M14.003 36.7056H11.5536L11.8358 37.1762L11.9604 36.9365L12.2615 36.3612L12.626 35.6643L12.9408 35.0624C12.9916 34.9649 13.0454 34.8686 13.0937 34.7702C13.0937 34.7688 13.0937 34.7673 13.0958 34.7661L12.8134 34.9208H15.1906L14.9081 34.7661L15.0327 35.0044L15.3338 35.58L15.6982 36.2764L16.013 36.8785C16.0641 36.9757 16.113 37.0746 16.1659 37.1709L16.1682 37.175C16.2622 37.0178 16.3563 36.861 16.4506 36.7044H14.0012C13.9147 36.7052 13.8319 36.7382 13.7698 36.7959C13.7242 36.8396 13.6932 36.8954 13.6806 36.956C13.6679 37.0166 13.6745 37.0796 13.6992 37.1367C13.7241 37.194 13.7659 37.2427 13.8196 37.2772C13.8733 37.3116 13.9366 37.3299 14.0012 37.3301H16.4506C16.5077 37.3299 16.5637 37.3152 16.6131 37.2883C16.6625 37.2612 16.7038 37.222 16.7328 37.175C16.761 37.1268 16.776 37.0724 16.776 37.0173C16.776 36.962 16.761 36.9076 16.7328 36.8591L16.6082 36.6194C16.5075 36.428 16.4071 36.236 16.307 36.0441L15.9427 35.3476L15.6278 34.7453C15.5767 34.6481 15.5282 34.5492 15.4746 34.4531L15.4727 34.4491C15.422 34.3524 15.2995 34.2939 15.1903 34.2939H12.8131C12.7038 34.2939 12.5815 34.3536 12.531 34.4491C12.4894 34.5284 12.4479 34.6077 12.4064 34.6873L12.1053 35.2629L11.7412 35.9605L11.4263 36.5626C11.3752 36.6601 11.3235 36.7572 11.2735 36.855C11.2735 36.855 11.2719 36.8577 11.2712 36.8591C11.243 36.9076 11.228 36.962 11.228 37.0173C11.228 37.0724 11.243 37.1268 11.2712 37.175C11.3003 37.222 11.3415 37.2612 11.391 37.2883C11.4406 37.3156 11.4966 37.3299 11.5536 37.3301H14.003C14.0898 37.3301 14.1731 37.2971 14.2343 37.2382C14.2956 37.1798 14.3301 37.1002 14.3301 37.0173C14.3301 36.9344 14.2956 36.8548 14.2343 36.7959C14.1731 36.7373 14.0898 36.7044 14.003 36.7044V36.7056Z" fill="white"/>
<path d="M13.9286 32.4448C14.2946 32.4493 14.6605 32.431 15.0242 32.3897C15.2335 32.3654 15.4412 32.3284 15.6461 32.2787C15.8541 32.2253 16.0573 32.154 16.2533 32.0655C16.6405 31.894 16.9686 31.6286 17.2664 31.33C17.5417 31.0503 17.7942 30.7487 18.0211 30.428C18.1291 30.2811 18.2289 30.1282 18.3204 29.9705C18.3549 29.9094 18.3681 29.8386 18.3579 29.769C18.3495 29.7066 18.3228 29.6287 18.2714 29.5886C18.0989 29.4516 17.927 29.3139 17.7555 29.1754C17.529 28.9931 17.3021 28.8116 17.0872 28.6156C16.7955 28.3493 16.4901 28.0812 16.1351 27.9034C15.9186 27.7904 15.6824 27.7206 15.4395 27.6984C15.2047 27.6791 14.9604 27.7175 14.7349 27.7772C14.5303 27.8338 14.3309 27.9079 14.1391 27.9991C14.0422 28.0429 13.9476 28.092 13.8562 28.1463L13.8432 28.1541H14.1621C14.1002 28.116 14.0352 28.0821 13.9704 28.0495C13.7938 27.9604 13.6108 27.8845 13.4229 27.8227C12.9866 27.6807 12.5054 27.6345 12.0728 27.8126C11.8666 27.8968 11.6712 28.006 11.4911 28.1376C11.3226 28.2611 11.1608 28.3937 11.0063 28.534C10.9068 28.6243 10.8092 28.7144 10.7068 28.8012C10.5871 28.9007 10.4673 28.9984 10.3475 29.0959C10.1473 29.2578 9.9412 29.4143 9.74385 29.5799L9.73289 29.5886L9.68375 29.6524C9.66129 29.6875 9.64848 29.728 9.64663 29.7696C9.63607 29.8389 9.64914 29.9099 9.68375 29.9712C9.7568 30.0997 9.84002 30.223 9.92324 30.3445C10.1372 30.6542 10.3742 30.9474 10.632 31.2214C10.9236 31.5288 11.2455 31.8157 11.6258 32.0071C11.9873 32.1852 12.3746 32.3048 12.7734 32.3618C13.2048 32.422 13.6401 32.4499 14.0756 32.4451V31.8136H13.9286C13.7642 31.8136 13.6064 31.9588 13.6142 32.1294C13.6155 32.2128 13.6492 32.2922 13.7078 32.351C13.7665 32.41 13.8456 32.4437 13.9286 32.4451H14.0756C14.2399 32.4451 14.3975 32.2996 14.39 32.1294C14.3885 32.0461 14.3548 31.9666 14.2962 31.9078C14.2375 31.8491 14.1585 31.8152 14.0756 31.8136C13.693 31.819 13.3105 31.7989 12.9306 31.7534L13.0145 31.7647C12.6798 31.7228 12.3519 31.6374 12.0392 31.5102L12.1144 31.5417C11.8992 31.4511 11.6965 31.3333 11.5111 31.1909L11.5745 31.2404C11.2134 30.9576 10.9006 30.6047 10.6212 30.2416L10.6704 30.3058C10.5072 30.0988 10.3587 29.8809 10.2257 29.6535L10.1763 30.0362C10.3449 29.9021 10.5132 29.7676 10.6808 29.6326C10.903 29.4536 11.1273 29.2761 11.338 29.0839C11.48 28.9544 11.6225 28.826 11.774 28.7078L11.7105 28.7571C11.8888 28.6137 12.0844 28.4939 12.2929 28.4L12.2177 28.4318C12.335 28.3807 12.4584 28.3453 12.5848 28.3262L12.5013 28.338C12.6372 28.3215 12.7747 28.3232 12.9103 28.3432L12.8268 28.3321C13.0663 28.3684 13.3001 28.4359 13.5223 28.5328L13.4474 28.501C13.5843 28.5577 13.717 28.6243 13.8442 28.7004C13.8922 28.7288 13.9471 28.7436 14.0028 28.7436C14.0587 28.7436 14.1134 28.7288 14.1616 28.7004C14.2898 28.6234 14.4238 28.5559 14.5621 28.4993L14.4871 28.5309C14.707 28.4351 14.9386 28.3682 15.1757 28.3321L15.0918 28.3436C15.228 28.3236 15.3663 28.3215 15.5029 28.338L15.4194 28.3262C15.5458 28.3453 15.6692 28.3811 15.7865 28.4318L15.7113 28.4C15.9197 28.4939 16.1154 28.6137 16.2937 28.7571L16.2302 28.7078C16.4679 28.8934 16.6818 29.1066 16.9138 29.2992C17.1534 29.4971 17.3959 29.6898 17.6384 29.8853L17.8276 30.0356L17.7786 29.653C17.6454 29.8803 17.4969 30.0983 17.3338 30.3051L17.3829 30.241C17.1036 30.6041 16.7908 30.957 16.4294 31.2397L16.4932 31.1902C16.3077 31.3327 16.1049 31.4506 15.8898 31.5411L15.9649 31.5096C15.6523 31.6367 15.3244 31.7222 14.9897 31.7642L15.0733 31.7527C14.6934 31.7984 14.3111 31.8185 13.9286 31.8131C13.7642 31.8131 13.6064 31.9581 13.6142 32.1288C13.6154 32.2121 13.6489 32.2916 13.7076 32.3507C13.7664 32.4097 13.8456 32.4433 13.9286 32.4448Z" fill="white"/>
<path d="M41.1003 8.31516V19.5H38.26V5.78829H43.5292C44.5217 5.78829 45.4554 5.95806 46.3303 6.29758C47.2183 6.63711 47.9888 7.11376 48.6417 7.72752C49.2947 8.32822 49.8105 9.05298 50.1892 9.9018C50.581 10.7376 50.7768 11.6647 50.7768 12.6833C50.7768 13.6889 50.581 14.6095 50.1892 15.4453C49.8105 16.281 49.2881 16.9992 48.6221 17.6C47.9561 18.2007 47.1857 18.6708 46.3107 19.0103C45.4358 19.3368 44.5086 19.5 43.5292 19.5H42.0797L42.824 17.6C42.9155 17.378 43.0265 17.2278 43.157 17.1494C43.3007 17.058 43.4835 16.9992 43.7055 16.9731C43.9797 16.934 44.2344 16.8948 44.4695 16.8556C44.7176 16.8164 44.9722 16.7446 45.2334 16.6401C46.043 16.3006 46.6829 15.7783 47.153 15.0731C47.6231 14.3548 47.8582 13.5583 47.8582 12.6833C47.8582 12.0696 47.7472 11.5015 47.5252 10.9792C47.3032 10.4438 46.9963 9.98015 46.6046 9.58839C46.2259 9.19663 45.7688 8.88975 45.2334 8.66775C44.711 8.43269 44.1365 8.31516 43.5096 8.31516H41.1003ZM59.0967 19.7155C58.1565 19.7155 57.3142 19.5718 56.5699 19.2845C55.8255 18.9972 55.1856 18.5924 54.6502 18.0701C54.1279 17.5347 53.7231 16.8882 53.4358 16.1308C53.1615 15.3734 53.0244 14.5311 53.0244 13.604V5.82747H55.8647V13.604C55.8647 14.1002 55.9365 14.5638 56.0802 14.9947C56.2238 15.4257 56.4328 15.7978 56.707 16.1113C56.9812 16.4247 57.3208 16.6728 57.7256 16.8556C58.1304 17.0254 58.594 17.1102 59.1163 17.1102C59.6387 17.1102 60.0957 17.0254 60.4875 16.8556C60.8923 16.6728 61.2318 16.4247 61.5061 16.1113C61.7803 15.7978 61.9827 15.4257 62.1133 14.9947C62.257 14.5638 62.3288 14.1002 62.3288 13.604V5.82747H64.1897C64.4508 5.82747 64.6794 5.92541 64.8752 6.12129C65.0711 6.31717 65.1691 6.5457 65.1691 6.80688V13.604C65.1691 14.5311 65.0254 15.3734 64.7381 16.1308C64.4639 16.8882 64.0591 17.5347 63.5237 18.0701C63.0013 18.5924 62.368 18.9972 61.6236 19.2845C60.8793 19.5718 60.037 19.7155 59.0967 19.7155ZM73.4735 19.7155C72.3635 19.7155 71.2796 19.5065 70.2219 19.0886C69.1641 18.6577 68.2239 18.0635 67.4012 17.3061C67.5057 17.2017 67.6363 17.0645 67.793 16.8948C67.9497 16.725 68.1129 16.5618 68.2827 16.4051C68.4524 16.2353 68.6287 16.0917 68.8115 15.9741C68.9944 15.8566 69.1641 15.7978 69.3208 15.7978C69.4645 15.7978 69.6669 15.8762 69.9281 16.0329C70.1892 16.1765 70.5027 16.3463 70.8683 16.5422C71.2339 16.725 71.6518 16.8948 72.1219 17.0515C72.5921 17.1951 73.1079 17.267 73.6694 17.267C73.9436 17.267 74.2375 17.2408 74.5509 17.1886C74.8773 17.1364 75.1842 17.0515 75.4715 16.934C75.7588 16.8034 75.9939 16.6271 76.1767 16.4051C76.3726 16.1831 76.4705 15.9023 76.4705 15.5628C76.4705 15.171 76.3464 14.8641 76.0983 14.6421C75.8502 14.4071 75.5237 14.2308 75.1189 14.1133C74.7272 13.9827 74.2701 13.8847 73.7478 13.8194C73.2385 13.7411 72.7161 13.6562 72.1807 13.5648C71.6584 13.4734 71.136 13.3559 70.6136 13.2122C70.1044 13.0686 69.6473 12.8596 69.2425 12.5854C68.8507 12.2981 68.5308 11.9324 68.2827 11.4885C68.0345 11.0445 67.9105 10.4829 67.9105 9.80386C67.9105 9.03339 68.0672 8.38699 68.3806 7.86463C68.7071 7.32923 69.125 6.89829 69.6342 6.57182C70.1435 6.23229 70.7181 5.9907 71.358 5.84706C72.0109 5.69035 72.6639 5.612 73.3168 5.612C74.3093 5.612 75.3017 5.78176 76.2942 6.12129C77.2997 6.46082 78.1943 6.95052 78.9778 7.5904C78.8603 7.70793 78.7231 7.85811 78.5664 8.04093C78.4097 8.22375 78.24 8.40004 78.0571 8.56981C77.8874 8.72651 77.7111 8.87016 77.5283 9.00075C77.3454 9.11828 77.1626 9.17704 76.9798 9.17704C76.8623 9.17704 76.6794 9.11828 76.4313 9.00075C76.1832 8.88322 75.8894 8.75916 75.5499 8.62857C75.2103 8.48493 74.8316 8.35434 74.4137 8.23681C74.0089 8.11928 73.578 8.06052 73.1209 8.06052C72.8859 8.06052 72.6182 8.08663 72.3178 8.13887C72.0305 8.17805 71.7563 8.2564 71.4951 8.37393C71.247 8.4784 71.0381 8.62857 70.8683 8.82445C70.6985 9.02034 70.6136 9.27498 70.6136 9.58839C70.6136 9.95404 70.7377 10.2413 70.9858 10.4503C71.2339 10.6592 71.5604 10.8225 71.9652 10.94C72.3701 11.0575 72.8271 11.1555 73.3364 11.2338C73.8588 11.2991 74.3876 11.3775 74.923 11.4689C75.4715 11.5603 76.0004 11.6843 76.5097 11.841C77.032 11.9847 77.4956 12.2002 77.9004 12.4874C78.3053 12.7747 78.6317 13.1469 78.8798 13.604C79.128 14.048 79.252 14.616 79.252 15.3081C79.252 16.1047 79.0757 16.7838 78.7231 17.3453C78.3836 17.9068 77.9396 18.3639 77.3911 18.7165C76.8427 19.0691 76.2224 19.3237 75.5303 19.4804C74.8512 19.6371 74.1656 19.7155 73.4735 19.7155ZM87.7644 19.5H84.9242V8.29557H80.3014V5.78829H93.0141L92.2697 7.66875C92.2044 7.85158 92.0869 8.00175 91.9171 8.11928C91.7474 8.23681 91.5645 8.29557 91.3687 8.29557H87.7644V19.5ZM106.33 19.7155C105.338 19.7155 104.397 19.5457 103.509 19.2062C102.621 18.8536 101.844 18.3639 101.178 17.7371C100.512 17.1102 99.9836 16.3659 99.5919 15.504C99.2131 14.6421 99.0238 13.7019 99.0238 12.6833C99.0238 11.6647 99.2131 10.7245 99.5919 9.86263C99.9836 8.98769 100.512 8.23681 101.178 7.60999C101.844 6.97011 102.621 6.47388 103.509 6.12129C104.397 5.7687 105.338 5.59241 106.33 5.59241C107.401 5.59241 108.439 5.81441 109.445 6.25841C110.45 6.68935 111.306 7.31617 112.011 8.13887C111.893 8.21722 111.736 8.32822 111.541 8.47187C111.358 8.61551 111.162 8.75916 110.953 8.90281C110.757 9.03339 110.561 9.15092 110.365 9.25539C110.169 9.35986 110 9.4121 109.856 9.4121C109.712 9.4121 109.536 9.35333 109.327 9.2358C109.131 9.10522 108.89 8.96157 108.602 8.80487C108.315 8.64816 107.982 8.51104 107.603 8.39351C107.238 8.26293 106.813 8.19763 106.33 8.19763C105.703 8.19763 105.122 8.31516 104.587 8.55022C104.051 8.78528 103.588 9.10522 103.196 9.51004C102.804 9.9018 102.497 10.3719 102.275 10.9204C102.053 11.4689 101.942 12.0565 101.942 12.6833C101.942 13.3101 102.053 13.8978 102.275 14.4463C102.51 14.9817 102.83 15.4453 103.235 15.837C103.64 16.2288 104.11 16.5422 104.646 16.7772C105.194 16.9992 105.782 17.1102 106.409 17.1102C106.879 17.1102 107.297 17.0515 107.662 16.934C108.028 16.8164 108.348 16.6858 108.622 16.5422C108.896 16.3855 109.131 16.2484 109.327 16.1308C109.536 16.0133 109.712 15.9545 109.856 15.9545C110 15.9545 110.163 16.0068 110.346 16.1113C110.542 16.2027 110.738 16.3202 110.933 16.4638C111.129 16.5944 111.319 16.7315 111.501 16.8752C111.684 17.0188 111.834 17.1298 111.952 17.2082C111.612 17.6 111.227 17.9525 110.796 18.2659C110.365 18.5794 109.902 18.8471 109.406 19.0691C108.922 19.278 108.42 19.4347 107.897 19.5392C107.375 19.6567 106.853 19.7155 106.33 19.7155ZM116.928 19.5H114.088V5.78829H115.948C116.21 5.78829 116.438 5.88623 116.634 6.08211C116.83 6.278 116.928 6.50652 116.928 6.7677V19.5ZM126.252 19.5H123.412V8.29557H118.789V5.78829H131.502L130.757 7.66875C130.692 7.85158 130.575 8.00175 130.405 8.11928C130.235 8.23681 130.052 8.29557 129.856 8.29557H126.252V19.5ZM141.193 19.5H138.353V13.839L143.172 6.51305C143.315 6.29105 143.505 6.11476 143.74 5.98417C143.975 5.85359 144.23 5.78829 144.504 5.78829H146.874L141.193 14.3483V19.5ZM137.668 13.1143L132.81 5.78829H135.16C135.421 5.78829 135.67 5.85359 135.905 5.98417C136.153 6.11476 136.349 6.29105 136.492 6.51305L139.235 10.7049L137.668 13.1143Z" fill="#F5F7FA"/>
<path d="M44.8295 28.4545C44.7784 28.0227 44.571 27.6875 44.2074 27.4489C43.8438 27.2102 43.3977 27.0909 42.8693 27.0909C42.483 27.0909 42.1449 27.1534 41.8551 27.2784C41.5682 27.4034 41.3438 27.5753 41.1818 27.794C41.0227 28.0128 40.9432 28.2614 40.9432 28.5398C40.9432 28.7727 40.9986 28.973 41.1094 29.1406C41.223 29.3054 41.3679 29.4432 41.544 29.554C41.7202 29.6619 41.9048 29.7514 42.098 29.8224C42.2912 29.8906 42.4688 29.946 42.6307 29.9886L43.517 30.2273C43.7443 30.2869 43.9972 30.3693 44.2756 30.4744C44.5568 30.5795 44.8253 30.723 45.081 30.9048C45.3395 31.0838 45.5526 31.3139 45.7202 31.5952C45.8878 31.8764 45.9716 32.2216 45.9716 32.6307C45.9716 33.1023 45.848 33.5284 45.6009 33.9091C45.3565 34.2898 44.9986 34.5923 44.527 34.8168C44.0582 35.0412 43.4886 35.1534 42.8182 35.1534C42.1932 35.1534 41.652 35.0526 41.1946 34.8509C40.7401 34.6491 40.3821 34.3679 40.1207 34.0071C39.8622 33.6463 39.7159 33.2273 39.6818 32.75H40.7727C40.8011 33.0795 40.9119 33.3523 41.1051 33.5682C41.3011 33.7812 41.5483 33.9403 41.8466 34.0455C42.1477 34.1477 42.4716 34.1989 42.8182 34.1989C43.2216 34.1989 43.5838 34.1335 43.9048 34.0028C44.2259 33.8693 44.4801 33.6847 44.6676 33.4489C44.8551 33.2102 44.9489 32.9318 44.9489 32.6136C44.9489 32.3239 44.8679 32.0881 44.706 31.9062C44.544 31.7244 44.331 31.5767 44.0668 31.4631C43.8026 31.3494 43.517 31.25 43.2102 31.1648L42.1364 30.858C41.4545 30.6619 40.9148 30.3821 40.517 30.0185C40.1193 29.6548 39.9205 29.179 39.9205 28.5909C39.9205 28.1023 40.0526 27.6761 40.3168 27.3125C40.5838 26.946 40.9418 26.6619 41.3906 26.4602C41.8423 26.2557 42.3466 26.1534 42.9034 26.1534C43.4659 26.1534 43.9659 26.2543 44.4034 26.456C44.8409 26.6548 45.1875 26.9276 45.4432 27.2741C45.7017 27.6207 45.8381 28.0142 45.8523 28.4545H44.8295ZM47.7092 35V26.2727H48.766V30.1591H53.4194V26.2727H54.4762V35H53.4194V31.0966H48.766V35H47.7092ZM63.9556 30.6364C63.9556 31.5568 63.7894 32.3523 63.457 33.0227C63.1246 33.6932 62.6687 34.2102 62.0891 34.5739C61.5096 34.9375 60.8477 35.1193 60.1033 35.1193C59.359 35.1193 58.6971 34.9375 58.1175 34.5739C57.538 34.2102 57.082 33.6932 56.7496 33.0227C56.4173 32.3523 56.2511 31.5568 56.2511 30.6364C56.2511 29.7159 56.4173 28.9205 56.7496 28.25C57.082 27.5795 57.538 27.0625 58.1175 26.6989C58.6971 26.3352 59.359 26.1534 60.1033 26.1534C60.8477 26.1534 61.5096 26.3352 62.0891 26.6989C62.6687 27.0625 63.1246 27.5795 63.457 28.25C63.7894 28.9205 63.9556 29.7159 63.9556 30.6364ZM62.9329 30.6364C62.9329 29.8807 62.8065 29.2429 62.5536 28.723C62.3036 28.2031 61.9641 27.8097 61.5352 27.5426C61.109 27.2756 60.6317 27.142 60.1033 27.142C59.5749 27.142 59.0962 27.2756 58.6673 27.5426C58.2411 27.8097 57.9016 28.2031 57.6488 28.723C57.3988 29.2429 57.2738 29.8807 57.2738 30.6364C57.2738 31.392 57.3988 32.0298 57.6488 32.5497C57.9016 33.0696 58.2411 33.4631 58.6673 33.7301C59.0962 33.9972 59.5749 34.1307 60.1033 34.1307C60.6317 34.1307 61.109 33.9972 61.5352 33.7301C61.9641 33.4631 62.3036 33.0696 62.5536 32.5497C62.8065 32.0298 62.9329 31.392 62.9329 30.6364ZM65.7326 35V26.2727H68.6815C69.3661 26.2727 69.9258 26.3963 70.3604 26.6435C70.7979 26.8878 71.1218 27.2188 71.332 27.6364C71.5423 28.054 71.6474 28.5199 71.6474 29.0341C71.6474 29.5483 71.5423 30.0156 71.332 30.4361C71.1246 30.8565 70.8036 31.1918 70.369 31.4418C69.9343 31.6889 69.3775 31.8125 68.6985 31.8125H66.5849V30.875H68.6644C69.1332 30.875 69.5096 30.794 69.7937 30.6321C70.0778 30.4702 70.2837 30.2514 70.4116 29.9759C70.5423 29.6974 70.6076 29.3835 70.6076 29.0341C70.6076 28.6847 70.5423 28.3722 70.4116 28.0966C70.2837 27.821 70.0763 27.6051 69.7894 27.4489C69.5025 27.2898 69.1218 27.2102 68.6474 27.2102H66.7894V35H65.7326Z" fill="white"/>
</g>
<defs>
<clipPath id="clip0_301_2">
<rect width="148" height="38" fill="white"/>
</clipPath>
</defs>
</svg>
